<svg id="Icons" xmlns="http://www.w3.org/2000/svg" viewBox="0 0 512 512"><defs><style>.cls-3{fill:#aacfe5}.cls-4{fill:#cde6f6}.cls-5{fill:#eef9ff}.cls-7{fill:#f9c744}.cls-8{fill:#fff}</style></defs><circle cx="256" cy="256" r="255.98" style="fill:#b82065"/><path d="M512 255.76A255.63 255.63 0 0 0 408.56 50.44C295-33.81 134.69-10.08 50.44 103.44a254.76 254.76 0 0 0-49.93 136 76.89 76.89 0 0 1 14.24 6.88c23.84 14.74 42 41.9 69.91 44.44 19.15 1.75 37.29-9.24 51.1-22.62s24.87-29.51 39.4-42.12a112.53 112.53 0 0 1 157.7 10c14.17 15.89 26.53 37.44 47.68 40 28.75 3.44 51.22-31.63 80-28.95 9.3.87 17.72 5.66 26.73 8a54.5 54.5 0 0 0 24.73.69z" style="fill:#d7156f"/><path class="cls-3" d="M440.68 206.17V311a20.46 20.46 0 0 1-20.47 20.47h-64v-27.05h48.63a8.76 8.76 0 0 0 8.77-8.76v-74.13a8.77 8.77 0 0 0-8.77-8.76h-48.63V185.7h64a20.46 20.46 0 0 1 20.47 20.47z"/><path class="cls-4" d="M440.68 206.17v93.53a20.46 20.46 0 0 1-20.47 20.46h-39.77a6.18 6.18 0 0 1-6.18-6.17v-3.4a6.18 6.18 0 0 1 6.18-6.17h33.43a8.76 8.76 0 0 0 8.76-8.76V210.2a8.76 8.76 0 0 0-8.76-8.76h-33.43a6.18 6.18 0 0 1-6.18-6.18v-3.38a6.18 6.18 0 0 1 6.18-6.18h39.77a20.47 20.47 0 0 1 20.47 20.47z"/><ellipse class="cls-5" cx="432.93" cy="225.19" rx="7.75" ry="17.06"/><ellipse class="cls-5" cx="432.93" cy="259.32" rx="5.37" ry="11.83"/><path class="cls-3" d="M356.21 144.77v250.48A18.73 18.73 0 0 1 337.48 414h-192a18.73 18.73 0 0 1-18.73-18.73v-250.5A18.73 18.73 0 0 1 145.52 126h192a18.73 18.73 0 0 1 18.69 18.77z"/><path class="cls-4" d="M356.21 144.77v250.48A18.73 18.73 0 0 1 337.48 414H166.2a18.73 18.73 0 0 1-18.73-18.73v-250.5A18.73 18.73 0 0 1 166.2 126h171.28a18.73 18.73 0 0 1 18.73 18.77z"/><rect class="cls-5" x="335.53" y="149.4" width="20.68" height="84.18" rx="10.34"/><rect class="cls-5" x="335.53" y="251.18" width="20.68" height="52.74" rx="10.34"/><path d="M147.47 126.05h188.06v237.66A22.49 22.49 0 0 1 313 386.2H170a22.49 22.49 0 0 1-22.49-22.49V126.05h-.04z" style="fill:#f39e22"/><ellipse class="cls-7" cx="301.81" cy="200.19" rx="22.13" ry="39.04"/><ellipse class="cls-7" cx="301.81" cy="275.54" rx="13.8" ry="24.36"/><path class="cls-8" d="M335.53 126H147.47a25.82 25.82 0 0 1 34.87-24.21 25.85 25.85 0 0 1 51.49-.55 40.1 40.1 0 0 1 44.83-3 20 20 0 0 1 39.93 1.88 19.49 19.49 0 0 1-.91 5.95A20 20 0 0 1 335.53 126z"/><circle class="cls-8" cx="235.17" cy="208.21" r="13.25"/><circle class="cls-8" cx="259.96" cy="254.27" r="17.14"/><circle class="cls-8" cx="294.24" cy="132.26" r="17.14"/><circle class="cls-8" cx="228.75" cy="288.7" r="11.15"/><circle class="cls-8" cx="195.67" cy="348.1" r="11.15"/><circle class="cls-8" cx="268.47" cy="331.48" r="14.36"/><circle class="cls-8" cx="265.95" cy="172.3" r="11.15"/><path class="cls-8" d="M182.3 307.19a13.37 13.37 0 0 1-13.38-13.37V126.05h26.75v167.77a13.37 13.37 0 0 1-13.37 13.37zM208.42 126h26.74v40.18a13.37 13.37 0 0 1-13.37 13.37 13.37 13.37 0 0 1-13.37-13.37V126z"/></svg>